<?xml version="1.0" encoding="UTF-8"?><svg id="Capa_2" xmlns="http://www.w3.org/2000/svg" viewBox="0 0 170 180.18"><g id="Capa_1-2"><path d="M164.61,124.95c-3.99-9.83-7.38-19.92-7.2-30.61,.14-8.78,1.15-17.55,1.96-26.31,1.03-11.14,1.37-22.23-1.34-33.21-2.53-10.24-7.48-18.98-17.34-24.08C121.23,.69,100.66-2.69,79.04,2.24c-12.34,2.81-23.26,8.33-31.66,17.9-6.65,7.58-10.64,16.53-13.33,26.05-2.28,8.07-4.19,16.23-6.42,24.32-3.51,12.73-10.4,23.91-17.07,35.19C5.23,114.72,.65,124.04,.09,134.73c-.5,9.41,.99,18.33,7.66,25.6,12.98,14.15,29.25,21.02,48.72,19.7,6.98-.47,12.98-3.43,15.99-10.25,2.04-4.63,2.02-9.56,.5-14.16-1.62-4.92-3.71-9.82-6.45-14.23-6.37-10.27-9.59-21.16-8.73-33.18,.05-.63-.84-1.55-1.52-1.97-3.23-1.96-6.85-3.41-9.76-5.73-7.5-5.99-9.85-16.74-5.86-24.59,1.24-2.43,2.93-4.12,5.08-5.05,2.23-.8,4.84-.88,7.66-.06,3.89,1.12,6.57,3.79,8.36,7.36,.54,1.07,1.01,2.18,1.76,3.81,2.65-7.31,2.36-14.5,3.98-21.46,.24,3.99,.48,7.97,.72,11.82,14.53-.84,28.75-1.66,43.12-2.5,.28-3.85,.57-7.76,.86-11.67,.17,0,.33,0,.5-.01,.72,3.97,1.45,7.93,2.17,11.92h7.12c.29-3.12,.56-6.1,.83-9.08,.1,0,.21,0,.31,0,.43,3.09,.85,6.17,1.28,9.23,6.74,.46,13.26,.9,19.91,1.35,.54-3.65,1.05-7.17,1.57-10.69l.43-.02c.22,3.75,.43,7.49,.64,11.18,1.21,.27,2.32,.51,3.46,.76,.42,1.99,.57,4.07,.46,6.31-.54,11.38-.71,22.78-4.1,33.78-5.04,16.38-12.88,30.59-31.17,36.44-.1,3.11,1.52,5.47,4.26,6.7,3.04,1.38,6.3,2.46,9.58,3.12,7.37,1.49,15.05,1.54,22.1,4.53,4.18,1.78,8.32,3.66,12.78,5.63,3.24-5.11,4.86-10.64,5.45-16.48,.99-9.77-1.52-18.9-5.17-27.89Z"/></g></svg>